<svg xmlns="http://www.w3.org/2000/svg" width="200" height="70" viewBox="0 0 324 115">
  <defs>
    <style>
      .cls-1 {
        fill-rule: evenodd;
      }
    </style>
  </defs>
  <path id="Javier_Rivera" data-name="Javier Rivera" class="cls-1" d="M41.25,48.125V41.25h6.875V0H34.375V41.25H13.75V34.375H0V41.25H6.875v6.875H41.25Zm61.875,0v-27.5H96.25V13.75H61.875v6.875h27.5V27.5h-27.5v6.875H55V41.25h6.875v6.875h41.25ZM68.75,34.375H89.375V41.25H68.75V34.375Zm75.625,13.75V41.25h6.875V34.375h6.875V13.75h-13.75V34.375h-13.75V13.75h-13.75V34.375h6.875V41.25h6.875v6.875h13.75Zm55-41.25V0h-13.75V6.875h13.75Zm13.75,41.25V41.25h-13.75V13.75H178.75v6.875h6.875V41.25h-13.75v6.875h41.25Zm48.125,0V41.25h-27.5V34.375h34.375V20.625H261.25V13.75H226.875v6.875H220V41.25h6.875v6.875H261.25Zm-27.5-27.5h20.625V27.5H233.75V20.625Zm61.875-6.875h-13.75V48.125h13.75V27.5H302.5V20.625h-6.875V13.75Zm6.875,0v6.875h20.625V13.75H302.5ZM13.75,114.125v-13.75h6.875v6.875H27.5v6.875H48.125V107.25H41.25v-6.875H34.375V93.5h13.75V72.875H41.25V66H0v48.125H13.75Zm0-41.25H34.375v13.75H27.5V93.5H13.75V72.875Zm75.625,0V66H75.625v6.875h13.75Zm13.75,41.25V107.25H89.375V79.75H68.75v6.875h6.875V107.25H61.875v6.875h41.25Zm41.25,0V107.25h6.875v-6.875h6.875V79.75h-13.75v20.625h-13.75V79.75h-13.75v20.625h6.875v6.875h6.875v6.875h13.75Zm61.875,0V107.25h-27.5v-6.875h34.375V86.625H206.25V79.75H171.875v6.875H165V107.25h6.875v6.875H206.25Zm-27.5-27.5h20.625V93.5H178.75V86.625Zm61.875-6.875h-13.75v34.375h13.75V93.5H247.5V86.625h-6.875V79.75Zm6.875,0v6.875h20.625V79.75H247.5Zm75.625,34.375v-27.5H316.25V79.75H281.875v6.875h27.5V93.5h-27.5v6.875H275v6.875h6.875v6.875h41.25Zm-34.375-13.75h20.625v6.875H288.75v-6.875Z"/>
</svg>
